<svg xmlns="http://www.w3.org/2000/svg" width="256" height="256"><path fill="#1976D2" fill-opacity=".016" fill-rule="evenodd" d="M0 128.004v128.004l128.25-.254 128.25-.254.254-127.75L257.008 0H0zm.485.496c0 70.4.119 99.053.265 63.672s.146-92.98 0-128S.485 58.1.485 128.5"/><path fill="#1976D2" fill-opacity=".438" fill-rule="evenodd" d="M129.136 38.07c-26.898 1.732-47.402 6.358-63.636 14.359C39.634 65.177 21.536 86.723 13.362 114.5c-2.298 7.808-2.661 10.92-2.742 23.5-.079 12.234.257 15.718 2.152 22.291 8.054 27.952 28.098 47.073 57.98 55.311 34.873 9.614 74.022-3.995 96.432-33.522 6.8-8.958 13.475-23.013 15.503-32.641.92-4.367 1.764-8.074 1.876-8.239s8.243-3.393 18.07-7.174c15.782-6.072 17.575-6.986 15.367-7.836l-27.615-10.615-25.115-9.654-26.885 10.146c-14.787 5.58-27.223 10.459-27.637 10.841-.413.383 1.499 1.505 4.25 2.494l5.002 1.799V147h15v-9.813l3.5 1.074c1.925.591 3.5 1.614 3.5 2.272 0 3.76-7.895 16.506-13.926 22.48-16.549 16.397-37.41 19.518-54.074 8.091-13.996-9.597-19.912-26.278-15.478-43.644C65.125 101.594 86.947 85.777 125 79.274c7.54-1.289 17.236-1.639 47-1.699l37.5-.075.292-7.75.292-7.75H198.1l-.3-5.75-.3-5.75h-12L185 44l-.5-6.5-21.5-.113c-11.825-.062-27.064.246-33.864.683M207 46v7h13V39h-13zm26 0v7h13V39h-13zm-86 3.5V56h13V43h-13zm20 8.952V65h13.095l-.297-6.25-.298-6.25-6.25-.298-6.25-.297zm51 7.048V72h14V59h-14z"/><path fill="#1976D2" fill-opacity=".22" fill-rule="evenodd" d="M127 38.701c-10.935.854-28.487 3.458-29.616 4.395-.679.564-1.832.927-2.56.807s-1.999.043-2.824.363c-1.73.671-9.137 3.068-10.25 3.316-.412.093-.975.28-1.25.418-.541.271-2.047.675-3.257.875-.417.069-.625 2.038-.463 4.375s-.06 11.568-.493 20.511c-.622 12.861-.526 16.155.463 15.75 4.914-2.01 3.405-.956-5.394 3.765-36.125 19.387-50.785 47.129-43.448 82.224 3.288 15.733 5.39 19.987 12.442 25.183 10.043 7.399 25.892 14.497 32.4 14.51 1.787.004 3.25.347 3.25.763s1.237.737 2.75.712c1.513-.024 3.2.094 3.75.262.55.169 3.588.254 6.75.188L95 217v-8.917c0-6.149-.388-9.101-1.25-9.511-.687-.327-.125-.348 1.25-.047s6.325 1.055 11 1.676c20.807 2.761 46.496-6.533 62.135-22.481 6.488-6.616 7.831-10.248 8.547-23.12l.551-9.9-3.616.587-3.617.587v-17.737c0-19.402-.207-20.137-5.659-20.137-2.988 0-50.774 17.222-52.664 18.981-.453.421.447 1.078 2 1.46 6.384 1.571 7.323 2.959 7.323 10.832v7.227h13v-4.75c0-5.184.425-5.449 5.682-3.548 3.911 1.414 3.852 1.908-1.464 12.131-4.218 8.112-12.753 17.117-20.288 21.404-25.9 14.737-55.384 1.961-60.95-26.413-2.158-11.004 1.547-25.1 9.77-37.166 2.495-3.662 4.828-6.776 5.183-6.921s3.576-2.399 7.157-5.01c8.109-5.912 17.745-10.384 29.41-13.649C125.222 77.897 135.734 77 173.878 77H209V62h-12V51h-13V38l-26.25.175c-14.437.096-28.275.333-30.75.526m81.406 2.685c-.293.762-.391 3.349-.219 5.75l.313 4.364 5.75.3 5.75.3V40h-5.531c-3.792 0-5.699.436-6.063 1.386m27.344-.697c-1.361.356-1.75 1.528-1.75 5.277 0 5.479.697 6.034 7.582 6.034H246V40l-4.25.116c-2.338.064-5.037.322-6 .573M146 49.5V56h14V43h-14zm20.941 3c-.032.275-.087 3.313-.121 6.75l-.062 6.25 6.621.296 6.621.295V52h-6.5c-3.575 0-6.526.225-6.559.5M220 65.5V72h11V59h-11zM89 197c.825.533 1.95.969 2.5.969s.325-.436-.5-.969-1.95-.969-2.5-.969-.325.436.5.969"/><path fill="#1976D2" fill-opacity=".218" fill-rule="evenodd" d="M176 45c0 4.281.279 5 1.939 5 1.531 0 2.08.946 2.613 4.5.371 2.475.371 6.525 0 9-.533 3.554-1.082 4.5-2.613 4.5-1.587 0-1.939.708-1.939 3.896v3.896l14.304.715c7.867.393 15.18.548 16.25.343 1.68-.32 1.986-1.359 2.24-7.611l.294-7.239h-11.983l-.303-5.25-.302-5.25h-6c-3.3 0-6.562-.364-7.25-.809-.722-.467-1.25-2.895-1.25-5.75 0-4.823-.071-4.941-3-4.941-2.933 0-3 .111-3 5m-58.187 34.683c.721.289 1.584.253 1.916-.079s-.258-.568-1.312-.525c-1.165.048-1.402.285-.604.604M100.5 82.982c-39.238 10.348-64.851 31.352-72.161 59.177-3.176 12.093-2.13 28.518 2.847 44.688 2.499 8.115 3.141 7.598 1.06-.853-2.313-9.392-2.25-32.4.113-40.907 5.206-18.751 17.372-33.404 35.134-42.318 3.304-1.659 9.607-5.39 14.007-8.294 9.31-6.143 12.771-7.743 25-11.555 11.778-3.673 8.014-3.633-6 .062m32.861 35.991c-.29.29-.828.566-1.194.613-.367.048-1.342.339-2.167.648-.825.308-4.425 1.579-8 2.824-10.926 3.804-11.079 3.957-5.947 5.958l4.447 1.734.5 7.375c.493 7.265.543 7.38 3.408 7.707 1.599.182 4.299.071 6-.247 2.881-.54 3.092-.87 3.092-4.832 0-3.896.231-4.28 2.75-4.569l2.75-.317v-17.845l-2.556.212c-1.406.116-2.793.449-3.083.739M57.047 150.09c-.088 2.997 3.829 16.747 6.005 21.079C69.046 183.1 80.04 192.599 93 197.045c8.055 2.763 23.837 3.711 33.567 2.017 14.737-2.567 31.687-11.417 41.433-21.633l4.5-4.718-7 5.23c-6.948 5.191-20.474 12.266-25.75 13.47l-2.75.627v-17.519c0-9.635-.274-17.519-.608-17.519-.335 0-2.951 2.363-5.814 5.25-6.117 6.17-15.855 12.144-23.578 14.464-6.833 2.052-18.014 1.977-24-.161-10.32-3.687-20.076-13.132-24.039-23.274-1.027-2.629-1.888-4.063-1.914-3.189"/></svg>