<?xml version="1.0" encoding="UTF-8" standalone="no"?>
<svg
   width="54.791mm"
   height="40.427mm"
   version="1.1"
   viewBox="0 0 54.791 40.427"
   id="svg17"
   sodipodi:docname="leaf.svg"
   inkscape:version="1.1.2 (0a00cf5339, 2022-02-04)"
   xmlns:inkscape="http://www.inkscape.org/namespaces/inkscape"
   xmlns:sodipodi="http://sodipodi.sourceforge.net/DTD/sodipodi-0.dtd"
   xmlns="http://www.w3.org/2000/svg"
   xmlns:svg="http://www.w3.org/2000/svg">
  <sodipodi:namedview
     id="namedview19"
     pagecolor="#505050"
     bordercolor="#eeeeee"
     borderopacity="1"
     inkscape:pageshadow="0"
     inkscape:pageopacity="0"
     inkscape:pagecheckerboard="0"
     inkscape:document-units="mm"
     showgrid="false"
     inkscape:zoom="1.3644108"
     inkscape:cx="45.44086"
     inkscape:cy="78.788587"
     inkscape:window-width="1920"
     inkscape:window-height="1005"
     inkscape:window-x="0"
     inkscape:window-y="0"
     inkscape:window-maximized="1"
     inkscape:current-layer="g15" />
  <defs
     id="defs11">
    <linearGradient
       id="linearGradient316"
       x2="1"
       gradientTransform="matrix(49.18,47.328,47.328,-49.18,62.49163,86.572)"
       gradientUnits="userSpaceOnUse">
      <stop
         stop-color="#32d305"
         offset="0"
         id="stop2" />
      <stop
         stop-color="#32d305"
         offset=".28326"
         id="stop4" />
      <stop
         stop-color="#06331b"
         offset=".84134"
         id="stop6" />
      <stop
         stop-color="#06331b"
         offset="1"
         id="stop8" />
    </linearGradient>
  </defs>
  <g
     transform="translate(-53.78 -87.422)"
     id="g15">
    <path
       d="m 91.27563,93.203 c 1.9043,1.6353 3.36,3.4104 4.4743,5.1249 1.0978,1.5824 2.5166,3.6881 4.0023,6.0883 0.39316,0.63661 0.79111,1.2921 1.1903,1.9655 2.0788,3.5214 4.1537,7.4962 5.5685,11.332 0.58159,1.5742 0.90745,2.7374 1.0969,3.4871 0.50219,1.9494 0.82279,3.9266 0.96269,5.9321 -1.7339,0.38789 -3.4503,0.60147 -4.816,0.71593 0.91706,-8.6603 -2.7737,-16.341 -4.7894,-19.816 -0.10386,-0.17722 -0.19953,-0.34059 -0.29258,-0.49458 l -0.03231,-0.0485 -0.28444,-0.50204 -0.24653,-0.41335 -0.09795,-0.17334 -0.21652,-0.31828 -0.1628,-0.24439 -0.76497,-1.1209 c -0.2707,-0.36656 -0.56282,-0.71715 -0.84831,-1.072 -0.55104,-0.72245 -1.2029,-1.3653 -1.8296,-2.022 -2.5851,-2.5751 -5.7199,-4.5981 -9.1212,-5.8235 -3.3945,-1.25 -7.0196,-1.7752 -10.538,-1.4524 3.458,0.68839 6.7459,1.7107 9.7896,3.1912 3.0348,1.4953 5.7979,3.4537 8.1574,5.8078 1.3671,1.3646 2.6197,2.854 3.7326,4.4531 -3.9062,2.3457 -8.1395,3.7171 -12.377,2.9091 -3.0928,-0.58949 -4.9992,-2.1111 -7.3967,-3.9248 -1.5551,-1.1772 -3.317,-2.4768 -5.7439,-3.7258 -3.9832,-2.0401 -9.4645,-3.7982 -16.913,-3.7511 1.0006,-1.5971 5.8795,-9.0016 15.587,-11.312 0.87031,-0.20916 10.086,-2.2409 18.651,2.862 1.1029,0.65698 2.1961,1.433 3.258,2.3456"
       fill="url(#linearGradient316)"
       id="path13"
       style="fill:url(#linearGradient316)" />
  </g>
</svg>
