<?xml version="1.0" encoding="UTF-8" standalone="no"?>
<svg
   width="1055.5236"
   height="852.0556"
   viewBox="0 0 1055.5236 852.05558"
   role="img"
   artist="Katerina Limpitsouni"
   source="https://undraw.co/"
   version="1.1"
   id="svg114"
   sodipodi:docname="undraw_waiting__for_you_ldha.svg"
   xmlns:inkscape="http://www.inkscape.org/namespaces/inkscape"
   xmlns:sodipodi="http://sodipodi.sourceforge.net/DTD/sodipodi-0.dtd"
   xmlns="http://www.w3.org/2000/svg"
   xmlns:svg="http://www.w3.org/2000/svg">
  <defs
     id="defs118" />
  <sodipodi:namedview
     id="namedview116"
     pagecolor="#ffffff"
     bordercolor="#000000"
     borderopacity="0.25"
     inkscape:showpageshadow="2"
     inkscape:pageopacity="0.0"
     inkscape:pagecheckerboard="0"
     inkscape:deskcolor="#d1d1d1"
     showgrid="false" />
  <title
     id="title2">Waiting _for_you</title>
  <ellipse
     cx="502.36285"
     cy="821.88971"
     rx="250.30368"
     ry="8.9394197"
     fill="#3f3d56"
     id="ellipse4" />
  <circle
     cx="385.68161"
     cy="332.88806"
     r="89.563133"
     fill="#ff6584"
     id="circle6" />
  <ellipse
     cx="280.1586"
     cy="791.48138"
     rx="75.485748"
     ry="6.9581099"
     fill="#3f3d56"
     id="ellipse8" />
  <path
     d="m 417.67634,822.50116 c 0,0 62.65145,-167.07054 28.11283,-269.88318 -34.53862,-102.81264 -61.84823,-98.79652 -61.84823,-98.79652 0,0 -46.587,-12.04835 -104.41908,23.29349 -57.83208,35.34184 -73.09336,45.78375 -106.02554,31.32573 -32.93218,-14.45802 -39.358,-36.9483 -119.68033,-34.53863 0,0 42.57085,-23.29348 84.33849,-2.40967 41.76764,20.88381 69.88046,32.12895 112.45132,0 42.57086,-32.12895 101.20619,-73.89659 158.23508,-48.99659 0,0 -41.76764,-40.96442 -55.42244,-40.96442 -13.6548,0 -77.9127,-6.42579 -98.79652,-28.11283 0,0 -29.71928,-20.88381 -82.732,30.52251 -53.01272,51.40632 -40.16119,51.40632 -87.55139,47.3902 C 36.94833,427.31513 0,404.02159 0,404.02159 c 0,0 55.42243,22.49026 89.15783,11.24513 33.7354,-11.24513 62.65145,-53.816 92.37073,-68.274 29.71928,-14.458 47.3902,-33.73539 87.55139,-12.85158 0,0 -16.8677,-69.07724 -48.99665,-63.45467 -32.12895,5.62257 15.26125,-16.06448 15.26125,-16.06448 0,0 -8.83546,-117.27066 -25.70316,-125.3029 -16.8677,-8.03224 -6.42579,-28.916 -37.75151,-32.93217 0,0 38.55474,-4.81935 45.78375,21.687 7.22901,26.50635 57.02888,169.48021 57.02888,169.48021 0,0 30.52251,61.045 64.2579,46.587 33.73539,-14.458 -12.85158,-95.58362 -12.85158,-95.58362 l -57.8321,-26.50639 c 0,0 43.37409,-1.60645 69.88047,23.29348 26.50638,24.89993 28.11283,105.22231 28.11283,105.22231 0,0 66.66757,9.63869 82.732,45.78376 0,0 10.4419,-32.12895 -9.63869,-51.40632 -5.02015,-4.81934 -10.2913,-13.203 -15.3742,-23.06758 -19.438,-37.72422 -26.0323,-80.72643 -19.91733,-122.72121 2.99238,-20.55024 4.834,-40.64371 1.55613,-45.37846 -7.229,-10.44191 -37.75151,-74.69981 -40.16118,-91.56751 C 363.05709,35.34189 367.87643,5e-5 367.87643,5e-5 c 0,0 0.80322,43.37408 10.44191,57.02888 9.63869,13.6548 36.94829,81.1256 36.94829,81.1256 0,0 0,85.14172 22.49026,126.90935 22.49026,41.76763 65.86435,88.35461 63.45468,118.87712 v 17.67092 c 0,0 48.19342,-45.78375 44.98053,-61.045 -3.21289,-15.26125 -7.229,-51.40632 -37.75152,-73.09336 -30.52252,-21.68704 -50.60305,-56.22567 -28.91601,-106.02554 21.68704,-49.79987 21.687,-58.63533 21.687,-58.63533 l -14.458,61.84823 c 0,0 -8.03224,55.42243 14.458,74.6998 22.49024,19.27737 52.20954,54.61922 52.20954,54.61922 l -6.42579,-115.66422 20.88382,45.78375 c 0,0 44.98053,-57.83211 97.9933,-77.10948 53.01277,-19.27737 85.94498,-86.7482 85.94498,-86.7482 l 44.98053,-35.34185 -36.9483,44.17735 c 0,0 -11.24513,52.20954 -74.6998,89.15784 -63.45467,36.9483 -104.41912,91.5675 -106.82876,125.3029 -2.40964,33.7354 -4.81936,63.45467 -4.81936,63.45467 0,0 118.87711,-4.01611 145.38349,-56.22566 26.50638,-52.20955 28.91606,-155.8254 54.61922,-172.6931 25.70316,-16.8677 73.89658,-37.75152 73.89658,-37.75152 l -53.816,44.17731 c 0,0 -11.24513,36.14507 -8.83546,61.84823 2.40967,25.70316 -17.67089,49.79983 -17.67089,49.79983 l -15.26125,44.98053 -16.86769,38.55478 c 0,0 69.07724,1.60644 105.22231,42.57086 36.14507,40.96442 126.10609,53.01276 126.10609,53.01276 l -50.60306,13.65481 c 0,0 -48.19344,-16.06448 -93.97719,-45.78374 -45.78375,-29.71926 -40.96441,-56.22566 -97.9933,-26.50638 -57.02889,29.71928 -134.94158,54.61921 -134.94158,54.61921 0,0 44.98053,-20.88383 126.10612,29.71926 81.12559,50.60309 -40.16118,-8.83546 -76.30625,10.44191 -36.14507,19.27737 -53.01277,-4.81934 -67.4708,43.37408 -14.45803,48.19342 -40.96441,179.92212 -10.4419,253.8187 l 30.5225,73.89659 z"
     fill="#3f3d56"
     id="path10" />
  <path
     d="m 720.10366,290.76701 c -21.53454,42.41677 -104.03814,53.02354 -134.23047,55.51024 -0.84665,10.88865 -1.40489,17.7746 -1.40489,17.7746 0,0 118.87713,-4.01616 145.38343,-56.2257 26.5063,-52.20954 28.9161,-155.8254 54.61934,-172.6931 2.72588,-1.78887 5.7067,-3.62311 8.85412,-5.47266 0.88295,-3.24187 1.47837,-5.16067 1.47837,-5.16067 l 53.816,-44.1773 c 0,0 -48.19331,20.88379 -73.89654,37.75149 -25.70323,16.8677 -28.11291,120.48357 -54.61936,172.6931 z"
     opacity="0.1"
     id="path12" />
  <path
     d="m 581.58788,209.62055 c -0.17537,19.776 -2.74209,31.538 -2.74209,31.538 0,0 44.96169,-57.80737 97.96,-77.097 3.13225,-1.98157 6.31,-3.93256 9.56245,-5.82645 63.45472,-36.94834 74.6999,-89.15788 74.6999,-89.15788 l 36.94828,-44.1773 -44.98057,35.34187 c 0,0 -32.93219,67.47081 -85.9448,86.74816 -36.13583,13.14025 -68.53373,44.18963 -85.50317,62.6306 z"
     opacity="0.1"
     id="path14" />
  <path
     d="m 512.1782,401.00012 v 17.67092 c 0,0 48.19345,-45.78373 44.98044,-61.045 -2.457,-11.67126 -5.39881,-35.55224 -20.29224,-55.84417 6.71326,15.335 8.75655,30.29325 10.54416,38.785 2.304,10.94376 -21.82519,37.58133 -35.66283,51.77819 a 36.62966,36.62966 0 0 1 0.43047,8.65506 z"
     opacity="0.1"
     id="path16" />
  <path
     d="m 447.53114,279.73312 c 0.38168,0.81408 0.77525,1.61514 1.19233,2.38987 12.31718,22.87472 30.88681,47.19025 44.78053,69.52548 -11.22897,-22.11888 -30.77064,-47.41218 -45.97286,-71.91535 z"
     opacity="0.1"
     id="path18" />
  <path
     d="m 486.69019,245.53706 c -6.4772,-15.87053 -7.54443,-34.755 -0.10308,-56.88411 a 173.59159,173.59159 0 0 1 1.385,-23.992 l 12.64754,-54.10334 c -2.33186,7.80221 -7.66715,22.854 -19.87664,50.8904 -15.45661,35.49309 -9.68803,63.22787 5.94718,84.08905 z"
     opacity="0.1"
     id="path20" />
  <path
     d="m 841.39059,362.25391 c -25.06676,-28.409 -65.96552,-37.88655 -88.68555,-41.02891 l -6.78867,15.51718 c 0,0 69.07724,1.60651 105.2223,42.57086 20.044,22.71661 56.63273,36.53737 85.25696,44.346 l 31.101,-8.39227 c 0,0 -89.96099,-12.04843 -126.10604,-53.01286 z"
     opacity="0.1"
     id="path22" />
  <path
     d="m 349.92691,351.20023 c 33.73541,-14.45805 -12.85147,-95.58362 -12.85147,-95.58362 l -1.27443,-0.58412 c 11.61436,24.50481 28.45871,68.78824 4.37782,79.1086 -22.5332,9.65713 -43.63,-14.36887 -55.15808,-31.39127 0.41856,1.20393 0.64837,1.86346 0.64837,1.86346 0,0 30.52239,61.045 64.25779,46.58695 z"
     opacity="0.1"
     id="path24" />
  <path
     d="m 459.96866,403.40979 c 0,0 10.1653,-31.33364 -8.93133,-50.67956 4.6829,16.66623 -0.81675,33.62042 -0.81675,33.62042 -12.4271,-27.96079 -55.12834,-40.05739 -73.83214,-44.10292 0.72543,9.30906 0.84814,15.37833 0.84814,15.37833 0,0 66.66759,9.63866 82.73208,45.78373 z"
     opacity="0.1"
     id="path26" />
  <path
     d="m 500.61961,110.55759 c 1.81006,-6.05648 1.81051,-7.74495 1.81051,-7.74495 z"
     opacity="0.1"
     id="path28" />
  <path
     d="m 99.63697,432.4793 c 0.162,-0.0521 0.32649,-0.0998 0.48743,-0.15343 33.7354,-11.24518 62.65151,-53.81605 92.37083,-68.274 29.71932,-14.45795 47.39009,-33.73541 87.55122,-12.85162 0,0 -7.02606,-28.7597 -20.64148,-47.65448 a 187.3908,187.3908 0 0 1 10.89341,30.59534 c -40.16114,-20.88378 -57.83206,-1.60643 -87.55123,12.85162 -29.71932,14.458 -58.63542,57.02884 -92.37083,68.274 -33.73541,11.24516 -89.15781,-11.24519 -89.15781,-11.24519 0,0 36.94827,23.29351 84.33851,27.3096 5.42112,0.4594 10.04676,0.8648 14.07995,1.14816 z"
     opacity="0.1"
     id="path30" />
  <path
     d="m 434.51073,822.50116 c 14.71731,-45.116 50.11121,-169.87381 22.24509,-252.8241 -12.03412,-35.82272 -23.18857,-58.66584 -32.61819,-73.23894 7.0518,13.7954 14.76164,32.043 22.87011,56.17981 34.53859,102.81264 -28.11291,269.88323 -28.11291,269.88323 z"
     opacity="0.1"
     id="path32" />
  <path
     d="m 120.82925,480.36279 a 81.99255,81.99255 0 0 1 28.29182,8.18873 c 32.98678,16.49331 57.46154,26.9535 87.26282,14.80484 6.78881,-3.58629 14.38234,-8.02413 23.13948,-13.30751 0.68274,-0.49822 1.35893,-0.97643 2.0491,-1.49733 42.57079,-32.129 101.20621,-73.89662 158.2349,-48.99668 0,0 -11.52572,-11.30089 -24.44576,-22.03179 -52.27082,-12.82268 -104.6175,24.59591 -143.53722,53.96933 -42.57094,32.129 -70.68367,20.88379 -112.4514,0 -41.76773,-20.88379 -84.3385,2.40965 -84.3385,2.40965 31.03451,-0.93108 51.03224,1.8569 65.79476,6.46076 z"
     opacity="0.1"
     id="path34" />
  <path
     d="m 202.35917,121.5215 a 21.01179,21.01179 0 0 0 3.30316,4.22284 23.705,23.705 0 0 0 -3.30316,-4.22284 z"
     opacity="0.1"
     id="path36" />
  <path
     d="m 349.12373,252.40379 a 39.10828,39.10828 0 0 1 3.48224,3.75437 c -3.51854,-8.45832 -7.86364,-15.77227 -13.23032,-20.8135 -26.50631,-24.9 -69.88046,-23.29351 -69.88046,-23.29351 l 54.39563,24.93133 a 77.67982,77.67982 0 0 1 25.23291,15.42131 z"
     opacity="0.1"
     id="path38" />
  <path
     d="m 406.84643,143.77707 c 3.278,4.73474 1.43627,24.82825 -1.55616,45.37848 -6.11486,41.99478 0.4794,84.997 19.91739,122.72119 a 142.93383,142.93383 0 0 0 8.55858,14.69181 c -18.50924,-37.151 -24.71543,-79.23377 -18.7279,-120.35386 2.99243,-20.55023 4.83418,-40.64374 1.55616,-45.37848 -7.22895,-10.44189 -37.75149,-74.69983 -40.16114,-91.56754 a 116.89363,116.89363 0 0 1 -0.5032,-19.7093 C 369.69081,31.85625 369.09494,0 369.09494,0 c 0,0 -4.8193,35.34191 -2.40965,52.20954 2.40965,16.86763 32.93218,81.12564 40.16114,91.56753 z"
     opacity="0.1"
     id="path40" />
  <path
     d="m 482.2011,32.73436 a 22.98529,22.98529 0 0 0 -1.45813,-4.62147 c 0,0 0.61728,1.73353 1.45813,4.62147 z"
     opacity="0.1"
     id="path42" />
  <path
     d="m 198.49912,113.62945 c 7.079,0.86658 15.22185,3.03854 21.4331,8.07567 -0.40518,-1.37038 -0.75859,-2.59885 -1.04,-3.63121 -7.2291,-26.50638 -45.7838,-21.687 -45.7838,-21.687 17.42339,2.23376 21.92378,9.68605 25.3907,17.24254 z"
     opacity="0.1"
     id="path44" />
  <path
     d="m 398.13742,788.1817 c 5.72694,21.17024 25.343,34.2815 25.343,34.2815 0,0 10.33087,-21.21248 4.60392,-42.38271 -5.72695,-21.17023 -25.343,-34.2815 -25.343,-34.2815 0,0 -10.33087,21.21247 -4.60392,42.38271 z"
     fill="#3f3d56"
     id="path46" />
  <path
     d="m 406.55273,783.63199 c 15.71483,15.29775 17.63428,38.81395 17.63428,38.81395 0,0 -23.55932,-1.28635 -39.27414,-16.5841 -15.71482,-15.29775 -17.63428,-38.814 -17.63428,-38.814 0,0 23.55935,1.2864 39.27414,16.58415 z"
     fill="#85b9e8"
     id="path48" />
  <path
     d="m 354.46698,209.64046 c -1.36616,21.88859 -17.95525,38.66653 -17.95525,38.66653 0,0 -14.37407,-18.71048 -13.0079,-40.59908 1.36617,-21.8886 17.95522,-38.66652 17.95522,-38.66652 0,0 14.3741,18.71048 13.00793,40.59907 z"
     fill="#85b9e8"
     id="path50" />
  <path
     d="m 181.54073,71.26463 c 18.55193,11.69627 25.31859,34.29955 25.31859,34.29955 0,0 -23.312,3.63987 -41.86388,-8.0564 -18.55188,-11.69627 -25.31859,-34.29956 -25.31859,-34.29956 0,0 23.31198,-3.63987 41.86388,8.05641 z"
     fill="#85b9e8"
     id="path52" />
  <path
     d="m 140.11143,338.11824 c 18.55192,11.69628 25.31858,34.29955 25.31858,34.29955 0,0 -23.31195,3.63987 -41.86388,-8.05641 -18.55193,-11.69628 -25.31859,-34.29955 -25.31859,-34.29955 0,0 23.31196,-3.63986 41.86389,8.05641 z"
     fill="#85b9e8"
     id="path54" />
  <path
     d="m 238.81073,440.47305 c 18.55193,11.69628 25.31858,34.29956 25.31858,34.29956 0,0 -23.312,3.63987 -41.86388,-8.0564 -18.55188,-11.69627 -25.31858,-34.29956 -25.31858,-34.29956 0,0 23.31193,-3.63986 41.86388,8.0564 z"
     fill="#85b9e8"
     id="path56" />
  <path
     d="m 517.26417,110.27648 c -5.59474,21.20556 -25.12864,34.439 -25.12864,34.439 0,0 -10.463,-21.14761 -4.86828,-42.35317 5.59472,-21.20556 25.12865,-34.439 25.12865,-34.439 0,0 10.46302,21.14761 4.86827,42.35317 z"
     fill="#85b9e8"
     id="path58" />
  <path
     d="m 693.74762,126.81096 c -6.57575,20.92215 -26.70446,33.23195 -26.70446,33.23195 0,0 -9.46731,-21.61171 -2.89155,-42.53386 6.57576,-20.92215 26.70445,-33.23195 26.70445,-33.23195 0,0 9.46731,21.61169 2.89156,42.53386 z"
     fill="#85b9e8"
     id="path60" />
  <path
     d="m 884.49849,359.66471 c -11.91153,18.41446 -34.59208,24.91744 -34.59208,24.91744 0,0 -3.36814,-23.35276 8.54338,-41.76723 11.91152,-18.41447 34.59208,-24.91743 34.59208,-24.91743 0,0 3.36814,23.35276 -8.54338,41.76722 z"
     fill="#85b9e8"
     id="path62" />
</svg>
